#!OML:ASF E:\CV Data\Top Level 1\Subject 1\Session 1\player.ASF
:FULLY-SPECIFIED
:DEGREES
836
root 7.50828 17.8196 -11.7329 10.208 -10.9944 -1.36511
lowerback 3.46158 3.66677 1.9515
upperback -1.70424 5.07014 2.24771
thorax -3.73002 2.50323 0.889563
lowerneck -19.1177 -5.3577 -10.9573
upperneck 17.9238 -5.43934 5.58342
head 9.25888 -2.69502 2.97208
rclavicle 2.34566e-014 0
rhumerus -16.7566 -8.67744 -82.1868
rradius 32.2296
rwrist -29.4732
rhand -21.3599 -7.15604
rfingers 7.12502
rthumb 5.02681 -37.0764
lclavicle 2.34566e-014 0
lhumerus -37.4172 -4.88891 88.7746
lradius 49.3054
lwrist 6.26158
lhand -11.8219 11.8203
lfingers 7.12502
lthumb 14.2286 41.3129
rfemur -5.85896 -4.61373 21.3405
rtibia 19.0628
rfoot -19.2554 -24.5338
rtoes 2.65071
lfemur -23.3671 -2.0567 -16.0918
ltibia 19.7056
lfoot -3.17964 -5.83482
ltoes -3.02666
837
root 7.50214 17.8209 -11.7315 10.234 -11.0956 -1.37821
lowerback 3.41709 3.66737 1.92636
upperback -1.71559 5.06769 2.22303
thorax -3.71652 2.50251 0.880942
lowerneck -19.1158 -5.29787 -10.9352
upperneck 17.8797 -5.36612 5.60268
head 9.23634 -2.65678 2.98571
rclavicle -5.38706e-014 -2.22639e-014
rhumerus -17.4151 -9.35938 -81.8781
rradius 31.6218
rwrist -29.1983
rhand -21.3165 -7.25706
rfingers 7.12502
rthumb 5.06877 -37.1764
lclavicle -5.38706e-014 -2.22639e-014
lhumerus -37.4605 -4.66542 88.6532
lradius 49.1785
lwrist 6.2396
lhand -11.8218 11.9456
lfingers 7.12502
lthumb 14.2287 41.4382
rfemur -5.85473 -4.55321 21.3602
rtibia 19.0052
rfoot -19.2336 -24.4949
rtoes 2.66702
lfemur -23.3424 -2.07155 -16.0422
ltibia 19.6692
lfoot -3.16092 -5.71845
ltoes -3.06223
838
root 7.49616 17.8223 -11.73 10.2604 -11.2063 -1.39302
lowerback 3.37601 3.66883 1.9057
upperback -1.72202 5.06649 2.19636
thorax -3.69929 2.5023 0.867699
lowerneck -19.1484 -5.24015 -10.9062
upperneck 17.8478 -5.29376 5.62035
head 9.22401 -2.61824 2.99715
rclavicle 2.92213e-014 -1.27222e-014
rhumerus -18.0425 -10.1588 -81.5541
rradius 30.964
rwrist -28.8492
rhand -21.3309 -7.36007
rfingers 7.12502
rthumb 5.05488 -37.2798
lclavicle 2.92213e-014 -1.27222e-014
lhumerus -37.4937 -4.44494 88.5288
lradius 49.0528
lwrist 6.2266
lhand -11.75 12.2011
lfingers 7.12502
lthumb 14.2979 41.6888
rfemur -5.84718 -4.48464 21.379
rtibia 18.9404
rfoot -19.2099 -24.4539
rtoes 2.69235
lfemur -23.3133 -2.09041 -15.99
ltibia 19.6306
lfoot -3.14105 -5.58837
ltoes -3.10062
839
root 7.49022 17.8238 -11.7285 10.2874 -11.3266 -1.40862
lowerback 3.33353 3.67125 1.88752
upperback -1.72447 5.06646 2.16755
thorax -3.67674 2.50263 0.851079
lowerneck -19.1954 -5.18371 -10.87
upperneck 17.8192 -5.22309 5.63518
head 9.21523 -2.58009 3.00599
rclavicle -1.85864e-014 -2.38542e-014
rhumerus -18.6394 -11.0796 -81.2099
rradius 30.2514
rwrist -28.4027
rhand -21.3997 -7.44819
rfingers 7.12502
rthumb 4.98841 -37.3695
lclavicle -1.85864e-014 -2.38542e-014
lhumerus -37.5194 -4.23403 88.4047
lradius 48.9295
lwrist 6.22939
lhand -11.6633 12.4925
lfingers 7.12502
lthumb 14.3814 41.9743
rfemur -5.83968 -4.40411 21.3976
rtibia 18.8731
rfoot -19.1816 -24.4152
rtoes 2.71082
lfemur -23.2814 -2.10751 -15.9367
ltibia 19.5882
lfoot -3.11803 -5.45087
ltoes -3.14958
840
root 7.48429 17.8254 -11.7273 10.3157 -11.4521 -1.42209
lowerback 3.29068 3.67241 1.86841
upperback -1.72997 5.06477 2.13751
thorax -3.6571 2.50212 0.833725
lowerneck -19.2317 -5.12626 -10.831
upperneck 17.7902 -5.15281 5.64852
head 9.20436 -2.54227 3.01393
rclavicle -2.66371e-014 -4.29375e-014
rhumerus -19.2202 -12.1095 -80.8375
rradius 29.4897
rwrist -27.8459
rhand -21.5175 -7.50786
rfingers 7.12502
rthumb 4.87463 -37.4318
lclavicle -2.66371e-014 -4.29375e-014
lhumerus -37.5538 -4.03112 88.2832
lradius 48.8145
lwrist 6.24819
lhand -11.6098 12.7245
lfingers 7.12502
lthumb 14.433 42.2026
rfemur -5.83623 -4.3171 21.4138
rtibia 18.8068
rfoot -19.1498 -24.378
rtoes 2.72475
lfemur -23.2488 -2.12293 -15.8853
ltibia 19.5408
lfoot -3.09272 -5.31186
ltoes -3.2154
841
root 7.47828 17.827 -11.727 10.3447 -11.5812 -1.43379
lowerback 3.25481 3.67129 1.84495
upperback -1.7436 5.06045 2.10922
thorax -3.65035 2.50029 0.819918
lowerneck -19.242 -5.06556 -10.7922
upperneck 17.7559 -5.08025 5.65877
head 9.18676 -2.50408 3.0214
rclavicle 1.17184e-013 2.8625e-014
rhumerus -19.7946 -13.2312 -80.4312
rradius 28.6872
rwrist -27.1939
rhand -21.7086 -7.55063
rfingers 7.12502
rthumb 4.69016 -37.4787
lclavicle 1.17184e-013 2.8625e-014
lhumerus -37.6069 -3.83368 88.1681
lradius 48.7103
lwrist 6.27839
lhand -11.6532 12.8055
lfingers 7.12502
lthumb 14.3912 42.2867
rfemur -5.83831 -4.22411 21.4294
rtibia 18.7441
rfoot -19.1148 -24.3436
rtoes 2.73291
lfemur -23.2168 -2.13102 -15.8358
ltibia 19.4881
lfoot -3.06429 -5.17866
ltoes -3.29328
